<svg xmlns="http://www.w3.org/2000/svg" width="16" height="16" viewBox="0 0 16 16">
  <path fill="#23140B" fill-rule="evenodd" d="M15.6232297,11.9601106 C15.873963,12.2108439 16,12.5165507 16,12.8758904 C16,13.23523 15.873963,13.5409369 15.6232297,13.7916702 L13.7916702,15.6232297 C13.5395961,15.8753038 13.2338892,16.0013408 12.8745496,16.0013408 C12.5165507,16.0013408 12.2108439,15.8753038 11.9601106,15.6232297 L7.99932959,11.6637895 L4.03988938,15.6232297 C3.78915612,15.8753038 3.48344926,16.0013408 3.12410961,16.0013408 C2.76476997,16.0013408 2.46040392,15.8753038 2.20832984,15.6232297 L0.376770301,13.7916702 C0.124696221,13.5409369 0,13.23523 0,12.8758904 C0,12.5165507 0.124696221,12.2108439 0.376770301,11.9601106 L4.33621051,8.00067041 L0.376770301,4.0412302 C0.124696221,3.78915612 0,3.48479008 0,3.12410961 C0,2.76611079 0.124696221,2.46040392 0.376770301,2.20967066 L2.20832984,0.376770301 C2.46040392,0.12603704 2.76476997,0 3.12410961,0 C3.48344926,0 3.78915612,0.12603704 4.03988938,0.376770301 L7.99932959,4.33621051 L11.9601106,0.376770301 C12.2108439,0.12603704 12.5165507,0 12.8745496,0 C13.2338892,0 13.5395961,0.12603704 13.7916702,0.376770301 L15.6232297,2.20967066 C15.873963,2.46040392 16,2.76611079 16,3.12410961 C16,3.48479008 15.873963,3.78915612 15.6232297,4.0412302 L11.6637895,8.00067041 L15.6232297,11.9601106 Z"/>
</svg>