<svg viewBox="0 0 30 30" xmlns="http://www.w3.org/2000/svg"><defs><style>.a{fill:#222222;}.b{fill:#FBB315;}</style><style>.a{fill:#003471;}</style><style>.a{fill:#fff;}</style><style>.a{fill:#fff;}</style><style>.cls-1{fill:#fff;}</style></defs><symbol viewBox="0 0 15 24" id="icon-askumanitoba-mobile"><title>?</title>  <g id="askumanitoba-mobile-UofM-DS-askumanitoba" stroke="none" stroke-width="1" fill="none" fill-rule="evenodd"> <g id="askumanitoba-mobile-uofm-components-askumanitoba" transform="translate(-575.000000, -246.000000)" fill="#FFFFFF" fill-rule="nonzero"> <g id="askumanitoba-mobile-Buttons/ask-um-mobile" transform="translate(555.000000, 230.000000)"> <path d="M24.9609375,32.3183594 C24.9609375,30.8600188 25.1380191,29.698572 25.4921875,28.8339844 C25.8463559,27.9693967 26.494787,27.1178427 27.4375,26.2792969 C28.380213,25.440751 29.0078109,24.7584662 29.3203125,24.2324219 C29.6328141,23.7063776 29.7890625,23.1516956 29.7890625,22.5683594 C29.7890625,20.8079339 28.9765706,19.9277344 27.3515625,19.9277344 C26.5807253,19.9277344 25.963544,20.1647112 25.5,20.6386719 C25.036456,21.1126326 24.7942709,21.7662719 24.7734375,22.5996094 L20.2421875,22.5996094 C20.2630209,20.6100161 20.9062437,19.05274 22.171875,17.9277344 C23.4375063,16.8027287 25.1640516,16.2402344 27.3515625,16.2402344 C29.5599069,16.2402344 31.2734314,16.7740832 32.4921875,17.8417969 C33.7109436,18.9095105 34.3203125,20.417308 34.3203125,22.3652344 C34.3203125,23.2506555 34.1223978,24.0865846 33.7265625,24.8730469 C33.3307272,25.6595091 32.6380258,26.5318963 31.6484375,27.4902344 L30.3828125,28.6933594 C29.5911419,29.4537798 29.1380214,30.3443959 29.0234375,31.3652344 L28.9609375,32.3183594 L24.9609375,32.3183594 Z M24.5078125,37.1152344 C24.5078125,36.4173142 24.7447893,35.8417991 25.21875,35.3886719 C25.6927107,34.9355446 26.2994755,34.7089844 27.0390625,34.7089844 C27.7786495,34.7089844 28.3854143,34.9355446 28.859375,35.3886719 C29.3333357,35.8417991 29.5703125,36.4173142 29.5703125,37.1152344 C29.5703125,37.8027378 29.338544,38.3704405 28.875,38.8183594 C28.411456,39.2662783 27.799483,39.4902344 27.0390625,39.4902344 C26.278642,39.4902344 25.666669,39.2662783 25.203125,38.8183594 C24.739581,38.3704405 24.5078125,37.8027378 24.5078125,37.1152344 Z" id="askumanitoba-mobile-?"/> </g> </g> </g> </symbol><symbol viewBox="0 0 24 24" id="icon-back-to-top"><title>back-to-top</title> <style type="text/css"> .st0{fill:none;} .st1{fill:#222222;} </style> <rect x="64" y="46.1" class="st0" width="64.5" height="29.3"/> <path class="st1" d="M0.1,11.9c0,6.6,5.3,11.9,11.9,11.9s11.9-5.3,11.9-11.9S18.5,0.1,12,0.1S0.1,5.4,0.1,11.9z M13.1,8.6l4.5,4.5
	c0.3,0.3,0.4,0.7,0.4,1.1s-0.1,0.8-0.4,1.1c-0.6,0.6-1.6,0.6-2.1,0L12,11.8l-3.4,3.4c-0.6,0.6-1.6,0.6-2.1,0s-0.6-1.6,0-2.1l4.5-4.5
	C11.5,8,12.5,8,13.1,8.6z"/> </symbol><symbol viewBox="0 0 25.5 25.5" id="icon-circle-arrow-gold"><title>circle-arrow-gold</title><circle class="a" cx="12.75" cy="12.75" r="6.89"/><path class="b" d="M25.5,12.75A12.75,12.75,0,1,0,12.75,25.5,12.75,12.75,0,0,0,25.5,12.75ZM10,18.69a1.52,1.52,0,0,1,0-2.15l3.83-3.78L10,9a1.52,1.52,0,0,1,0-2.15,1.55,1.55,0,0,1,2.17,0l4.91,4.86a1.52,1.52,0,0,1,0,2.15l-4.91,4.86A1.55,1.55,0,0,1,10,18.69Z"/></symbol><symbol viewBox="0 0 25.5 25.5" id="icon-circle-arrow-reverse"><title>circle-arrow-reverse</title><path class="a" d="M25.5,12.75A12.75,12.75,0,1,0,12.75,25.5,12.75,12.75,0,0,0,25.5,12.75ZM10,18.69a1.52,1.52,0,0,1,0-2.15l3.83-3.78L10,9a1.52,1.52,0,0,1,0-2.15,1.55,1.55,0,0,1,2.17,0l4.91,4.86a1.52,1.52,0,0,1,0,2.15l-4.91,4.86A1.55,1.55,0,0,1,10,18.69Z"/></symbol><symbol viewBox="0 0 25 25" id="icon-close-thin"><title>close-thin</title> <path d="M14.2 12.1L23.8 21.7C24.4 22.2 24.4 23.2 23.8 23.8 23.2 24.4 22.2 24.4 21.7 23.8L12.1 14.2 2.6 23.8C2 24.4 1 24.4 0.4 23.8 -0.1 23.2-0.1 22.2 0.4 21.7L10 12.1 0.4 2.6C-0.1 2-0.1 1 0.4 0.4 1-0.1 2-0.1 2.6 0.4L12.1 10 21.7 0.4C22.2-0.1 23.2-0.1 23.8 0.4 24.4 1 24.4 2 23.8 2.6L14.2 12.1Z"/> </symbol><symbol viewBox="0 0 16 16" id="icon-close"><title>close</title> <path fill="#23140B" fill-rule="evenodd" d="M15.6232297,11.9601106 C15.873963,12.2108439 16,12.5165507 16,12.8758904 C16,13.23523 15.873963,13.5409369 15.6232297,13.7916702 L13.7916702,15.6232297 C13.5395961,15.8753038 13.2338892,16.0013408 12.8745496,16.0013408 C12.5165507,16.0013408 12.2108439,15.8753038 11.9601106,15.6232297 L7.99932959,11.6637895 L4.03988938,15.6232297 C3.78915612,15.8753038 3.48344926,16.0013408 3.12410961,16.0013408 C2.76476997,16.0013408 2.46040392,15.8753038 2.20832984,15.6232297 L0.376770301,13.7916702 C0.124696221,13.5409369 0,13.23523 0,12.8758904 C0,12.5165507 0.124696221,12.2108439 0.376770301,11.9601106 L4.33621051,8.00067041 L0.376770301,4.0412302 C0.124696221,3.78915612 0,3.48479008 0,3.12410961 C0,2.76611079 0.124696221,2.46040392 0.376770301,2.20967066 L2.20832984,0.376770301 C2.46040392,0.12603704 2.76476997,0 3.12410961,0 C3.48344926,0 3.78915612,0.12603704 4.03988938,0.376770301 L7.99932959,4.33621051 L11.9601106,0.376770301 C12.2108439,0.12603704 12.5165507,0 12.8745496,0 C13.2338892,0 13.5395961,0.12603704 13.7916702,0.376770301 L15.6232297,2.20967066 C15.873963,2.46040392 16,2.76611079 16,3.12410961 C16,3.48479008 15.873963,3.78915612 15.6232297,4.0412302 L11.6637895,8.00067041 L15.6232297,11.9601106 Z"/> </symbol><symbol viewBox="0 0 21 24" id="icon-directory"><title>directory</title> <path d="M19.7 7.4C20 7.4 20.2 7.2 20.2 7L20.2 3.3C20.2 3 20 2.8 19.7 2.8L17.9 2.8 17.9 1.5C17.9 0.7 17.3 0 16.5 0L1.5 0C0.7 0 0 0.7 0 1.5L0 22.4C0 23.2 0.7 23.9 1.5 23.9L16.5 23.9C17.3 23.9 17.9 23.2 17.9 22.4L17.9 21.1 19.7 21.1C20 21.1 20.2 20.9 20.2 20.6L20.2 16.9C20.2 16.7 20 16.4 19.7 16.4L17.9 16.4 17.9 14.3 19.7 14.3C20 14.3 20.2 14.1 20.2 13.8L20.2 10.1C20.2 9.8 20 9.6 19.7 9.6L17.9 9.6 17.9 7.4 19.7 7.4ZM14.3 16.1L13.2 17.2C12.9 17.4 12.6 17.5 12.3 17.5 10.9 17.5 8.6 15.9 6.8 14.1 4.5 11.8 2.6 8.9 3.7 7.7L4.8 6.7C5.2 6.3 5.9 6.3 6.3 6.7L7.8 8.2C8.3 8.6 8.3 9.3 7.8 9.7L7.4 10.2C7.4 10.4 7.8 11.2 8.8 12.1 9.7 13.1 10.5 13.5 10.7 13.5L11.2 13.1C11.6 12.7 12.3 12.7 12.7 13.1L14.3 14.6C14.5 14.8 14.6 15.1 14.6 15.4 14.6 15.7 14.5 15.9 14.3 16.1Z" fill="#fff"/> </symbol><symbol viewBox="0 0 12 24" id="icon-facebook"><title>icon-facebook</title><desc>Created with Sketch.</desc> <!-- Generator: Sketch 54.1 (76490) - https://sketchapp.com -->   <g id="facebook-Symbols" stroke="none" stroke-width="1" fill-rule="evenodd" opacity="0.954101562"> <g id="facebook-Framework/footer.base" transform="translate(-399.000000, -285.000000)"> <g id="facebook-FOOTER---1400px"> <g id="facebook-FOOTER"> <g id="facebook-SM" transform="translate(355.117188, 285.678677)"> <g id="facebook-Icons/facebook" transform="translate(44.742188, 0.148438)"> <path d="M7.31470568,23 L2.43724175,23 L2.43724175,11.4985483 L0,11.4985483 L0,7.53553396 L2.43724175,7.53553396 L2.43724175,5.15627367 C2.43724175,1.92344105 3.81270744,0 7.72302378,0 L10.9776468,0 L10.9776468,3.96446604 L8.94350742,3.96446604 C7.42125584,3.96446604 7.32066653,4.5182719 7.32066653,5.55184928 L7.31396058,7.53553396 L11,7.53553396 L10.5685836,11.4985483 L7.31396058,11.4985483 L7.31396058,23 L7.31470568,23 Z" id="facebook-Shape"/> </g> </g> </g> </g> </g> </g> </symbol><symbol viewBox="0 0 28 19" id="icon-hamburger"><title>hamburger</title> <g style="stroke-width:2;"> <path d="M1 1.5L26.6 1.5"/> <path d="M1 9.5L26.6 9.5"/> <path d="M1 17.5L26.6 17.5"/> </g> </symbol><symbol viewBox="0 0 26.39 26.39" id="icon-info-circle"><title>info-circle</title><path class="a" d="M13.19,20.21a1.56,1.56,0,0,1-1.56-1.56v-6a1.56,1.56,0,0,1,3.11,0v6A1.56,1.56,0,0,1,13.19,20.21Zm13.19-7A13.19,13.19,0,1,0,13.19,26.39,13.19,13.19,0,0,0,26.39,13.19Zm-3.11,0A10.08,10.08,0,1,1,13.19,3.12,10.08,10.08,0,0,1,23.27,13.19ZM14.75,8.69v0a1.56,1.56,0,0,0-3.11,0v0a1.56,1.56,0,0,0,3.11,0Z"/></symbol><symbol viewBox="0 0 25 25" id="icon-instagram"><title>icon-instagram</title><desc>Created with Sketch.</desc> <!-- Generator: Sketch 54.1 (76490) - https://sketchapp.com -->   <g id="instagram-Symbols" stroke="none" stroke-width="1" fill-rule="evenodd" opacity="0.954101562"> <g id="instagram-Framework/footer.base" transform="translate(-432.000000, -286.000000)" fill-rule="nonzero"> <g id="instagram-FOOTER---1400px"> <g id="instagram-FOOTER"> <g id="instagram-SM" transform="translate(355.117188, 285.678677)"> <g id="instagram-Icons/instagram" transform="translate(77.439453, 1.148438)"> <path d="M11.8405416,5.76643752 C8.48129796,5.76643752 5.77171935,8.47601613 5.77171935,11.8352598 C5.77171935,15.1945034 8.48129796,17.9040821 11.8405416,17.9040821 C15.1997853,17.9040821 17.9093639,15.1945034 17.9093639,11.8352598 C17.9093639,8.47601613 15.1997853,5.76643752 11.8405416,5.76643752 Z M11.8405416,15.7807865 C9.66970963,15.7807865 7.89501487,14.0113736 7.89501487,11.8352598 C7.89501487,9.65914597 9.6644278,7.88973304 11.8405416,7.88973304 C14.0166554,7.88973304 15.7860684,9.65914597 15.7860684,11.8352598 C15.7860684,14.0113736 14.0113736,15.7807865 11.8405416,15.7807865 L11.8405416,15.7807865 Z M19.5731402,5.51819153 C19.5731402,6.30518414 18.9393207,6.93372187 18.1576099,6.93372187 C17.3706173,6.93372187 16.7420795,6.29990232 16.7420795,5.51819153 C16.7420795,4.73648074 17.3758991,4.10266118 18.1576099,4.10266118 C18.9393207,4.10266118 19.5731402,4.73648074 19.5731402,5.51819153 Z M23.5926126,6.95484919 C23.5028215,5.05867235 23.0697115,3.37905052 21.6805903,1.99521115 C20.2967509,0.611371782 18.6171291,0.178261751 16.7209522,0.083188817 C14.7666752,-0.0277296057 8.90912616,-0.0277296057 6.95484919,0.083188817 C5.06395418,0.172979921 3.38433235,0.606089952 1.99521115,1.98992932 C0.606089952,3.37376869 0.178261751,5.05339052 0.083188817,6.94956736 C-0.0277296057,8.90384433 -0.0277296057,14.7613934 0.083188817,16.7156704 C0.172979921,18.6118472 0.606089952,20.2914691 1.99521115,21.6753084 C3.38433235,23.0591478 5.05867235,23.4922578 6.95484919,23.5873308 C8.90912616,23.6982492 14.7666752,23.6982492 16.7209522,23.5873308 C18.6171291,23.4975397 20.2967509,23.0644296 21.6805903,21.6753084 C23.0644296,20.2914691 23.4975397,18.6118472 23.5926126,16.7156704 C23.703531,14.7613934 23.703531,8.90912616 23.5926126,6.95484919 Z M21.067898,18.8125568 C20.6559153,19.8477954 19.858359,20.6453516 18.8178386,21.0626162 C17.2596988,21.6805903 13.5624181,21.5379809 11.8405416,21.5379809 C10.1186652,21.5379809 6.41610257,21.6753084 4.86324465,21.0626162 C3.82800604,20.6506335 3.03044976,19.8530772 2.61318522,18.8125568 C1.99521115,17.254417 2.13782055,13.5571363 2.13782055,11.8352598 C2.13782055,10.1133833 2.00049298,6.41082074 2.61318522,4.85796282 C3.02516793,3.82272421 3.82272421,3.02516793 4.86324465,2.60790339 C6.4213844,1.98992932 10.1186652,2.13253872 11.8405416,2.13253872 C13.5624181,2.13253872 17.2649807,1.99521115 18.8178386,2.60790339 C19.8530772,3.0198861 20.6506335,3.81744238 21.067898,4.85796282 C21.6858721,6.41610257 21.5432627,10.1133833 21.5432627,11.8352598 C21.5432627,13.5571363 21.6858721,17.2596988 21.067898,18.8125568 Z" id="instagram-Shape"/> </g> </g> </g> </g> </g> </g> </symbol><symbol viewBox="0 0 19.38 19.38" id="icon-link"><title>link</title><path class="a" d="M14,.31a5.54,5.54,0,0,0-3.95,1.63L7.25,4.76,9.08,6.59l0,0,2.8-2.8A3,3,0,1,1,16.13,8l-2.8,2.8,0,0,1.83,1.83,0,0L18,9.83A5.58,5.58,0,0,0,14,.31Zm-3.3,13.11-2.8,2.8A3,3,0,0,1,3.67,12l2.8-2.8,0,0L4.66,7.35l0,0-2.8,2.8A5.58,5.58,0,1,0,9.74,18l2.8-2.8,0,0-1.83-1.83Z" transform="translate(-0.21 -0.31)"/><path class="a" d="M6.24,13.66a1.29,1.29,0,0,0,1.83,0l5.49-5.49a1.29,1.29,0,0,0-1.83-1.83L6.24,11.83A1.29,1.29,0,0,0,6.24,13.66Z" transform="translate(-0.21 -0.31)"/></symbol><symbol viewBox="0 0 21 21" id="icon-linkedin"><title>icon-linkedin</title><desc>Created with Sketch.</desc> <!-- Generator: Sketch 54.1 (76490) - https://sketchapp.com -->   <g id="linkedin-Symbols" stroke="none" stroke-width="1" fill-rule="evenodd" opacity="0.954101562"> <g id="linkedin-Framework/footer.base" transform="translate(-517.000000, -287.000000)" fill-rule="nonzero"> <g id="linkedin-FOOTER---1400px"> <g id="linkedin-FOOTER"> <g id="linkedin-SM" transform="translate(355.117188, 285.678677)"> <g id="linkedin-Icons/linkedin" transform="translate(161.882812, 1.835938)"> <path d="M4.50961139,20.1426311 L0.332713104,20.1426311 L0.332713104,6.69472718 L4.50961139,6.69472718 L4.50961139,20.1426311 Z M2.41891419,4.86030899 C1.08356565,4.86030899 -1.26121336e-12,3.75426272 -1.26121336e-12,2.41891419 C-1.26121336e-12,1.08356565 1.08356565,-1.77635684e-15 2.41891419,-1.77635684e-15 C3.75426272,-1.77635684e-15 4.83782837,1.08356565 4.83782837,2.41891419 C4.83782837,3.75426272 3.75426272,4.86030899 2.41891419,4.86030899 Z M20.1426311,20.1426311 L15.9747251,20.1426311 L15.9747251,13.596276 C15.9747251,12.0361213 15.9432522,10.0353466 13.8030977,10.0353466 C11.6314703,10.0353466 11.2987572,11.730385 11.2987572,13.4838729 L11.2987572,20.1426311 L7.12635499,20.1426311 L7.12635499,6.69472718 L11.1324006,6.69472718 L11.1324006,8.52914537 L11.1908502,8.52914537 C11.7483695,7.47255646 13.1106947,6.35751795 15.1429423,6.35751795 C19.369298,6.35751795 20.1471273,9.1406181 20.1471273,12.755501 L20.1471273,20.1426311 L20.1426311,20.1426311 Z" id="linkedin-Shape"/> </g> </g> </g> </g> </g> </g> </symbol><symbol viewBox="0 0 37 37" id="icon-pause-dark"><title>pause-dark</title> <rect y="0.4" width="37" height="37" rx="4" fill="#222222"/> <polygon points="12 10.2 12 27.4 16.1 27.4 16.1 10.2" fill="#fff"/> <polygon points="21 10.2 21 27.4 25.1 27.4 25.1 10.2" fill="#fff"/> </symbol><symbol viewBox="0 0 37 37" id="icon-play-dark"><title>play-dark</title> <rect y="0.4" width="37" height="37" rx="4" fill="#222222"/> <path transform="translate(18.433743, 18.657628) rotate(-270.000000) translate(-18.433743, -18.657628)" d="M20.4 13.1L25 22.4C25.5 23.4 25.1 24.6 24.1 25.1 23.9 25.2 23.5 25.3 23.2 25.3L14 25.3C12.9 25.3 12 24.4 12 23.3 12 23 12 22.7 12.2 22.4L16.8 13.1C17.3 12.1 18.5 11.7 19.5 12.2 19.9 12.4 20.2 12.7 20.4 13.1Z" fill="#FFF"/> </symbol><symbol viewBox="0 0 28 33" id="icon-play"><title>play</title> <path d="M16.5983146,4.79696619 L29.6992856,28.3787141 C30.235712,29.3442816 29.8878244,30.5618882 28.9222569,31.0983146 C28.6251409,31.263379 28.2908596,31.35 27.9509711,31.35 L1.74902892,31.35 C0.644459421,31.35 -0.25097108,30.4545695 -0.25097108,29.35 C-0.25097108,29.0101115 -0.164350078,28.6758301 0.000714367976,28.3787141 L13.1016854,4.79696619 C13.6381118,3.83139873 14.8557184,3.48351113 15.8212859,4.0199375 C16.147766,4.20131535 16.4169367,4.47048606 16.5983146,4.79696619 Z" transform="translate(14.850000, 16.500000) rotate(-270.000000) translate(-14.850000, -16.500000) "/> </symbol><symbol viewBox="0 0 16 16" id="icon-plus-white"><title>plus-white</title> <path fill="#FFFFFF" fill-rule="evenodd" d="M15.6817156,6.13639018 C15.4695724,5.92424705 15.2119601,5.81824522 14.9088785,5.81824522 L10.1816153,5.81824522 L10.1816153,1.09084252 C10.1816153,0.787900449 10.075474,0.530288105 9.86347034,0.318144968 C9.6513272,0.106141307 9.39385433,-2.84772206e-14 9.09063331,-2.84772206e-14 L6.90894826,-2.84772206e-14 C6.60600619,-2.84772206e-14 6.34839385,0.106001831 6.13625071,0.318144968 C5.92410757,0.530288105 5.81810574,0.787900449 5.81810574,1.09084252 L5.81810574,5.81824522 L1.09084252,5.81824522 C0.787900449,5.81824522 0.530288105,5.92424705 0.318144968,6.13639018 C0.106001831,6.34853332 -2.84217094e-14,6.60600619 -2.84217094e-14,6.90908774 L-2.84217094e-14,9.09105174 C-2.84217094e-14,9.39413329 0.106001831,9.65160615 0.318144968,9.86360982 C0.530288105,10.075753 0.787900449,10.1817548 1.09084252,10.1817548 L5.81810574,10.1817548 L5.81810574,14.909297 C5.81810574,15.212239 5.92410757,15.4699908 6.13625071,15.6819945 C6.34839385,15.8939982 6.60600619,16 6.90894826,16 L9.09077278,16 C9.39399381,16 9.65146668,15.8939982 9.86360982,15.6819945 C10.075753,15.4698514 10.1817548,15.212239 10.1817548,14.909297 L10.1817548,10.1817548 L14.909018,10.1817548 C15.2120996,10.1817548 15.4697119,10.075753 15.681855,9.86360982 C15.8938587,9.65160615 16,9.39413329 16,9.09105174 L16,6.90908774 C15.9998605,6.60600619 15.8939982,6.34839385 15.6817156,6.13639018 L15.6817156,6.13639018 Z"/> </symbol><symbol viewBox="0 0 16 16" id="icon-plus"><title>plus</title> <path fill="#23140B" fill-rule="evenodd" d="M15.6817156,6.13639018 C15.4695724,5.92424705 15.2119601,5.81824522 14.9088785,5.81824522 L10.1816153,5.81824522 L10.1816153,1.09084252 C10.1816153,0.787900449 10.075474,0.530288105 9.86347034,0.318144968 C9.6513272,0.106141307 9.39385433,-2.84772206e-14 9.09063331,-2.84772206e-14 L6.90894826,-2.84772206e-14 C6.60600619,-2.84772206e-14 6.34839385,0.106001831 6.13625071,0.318144968 C5.92410757,0.530288105 5.81810574,0.787900449 5.81810574,1.09084252 L5.81810574,5.81824522 L1.09084252,5.81824522 C0.787900449,5.81824522 0.530288105,5.92424705 0.318144968,6.13639018 C0.106001831,6.34853332 -2.84217094e-14,6.60600619 -2.84217094e-14,6.90908774 L-2.84217094e-14,9.09105174 C-2.84217094e-14,9.39413329 0.106001831,9.65160615 0.318144968,9.86360982 C0.530288105,10.075753 0.787900449,10.1817548 1.09084252,10.1817548 L5.81810574,10.1817548 L5.81810574,14.909297 C5.81810574,15.212239 5.92410757,15.4699908 6.13625071,15.6819945 C6.34839385,15.8939982 6.60600619,16 6.90894826,16 L9.09077278,16 C9.39399381,16 9.65146668,15.8939982 9.86360982,15.6819945 C10.075753,15.4698514 10.1817548,15.212239 10.1817548,14.909297 L10.1817548,10.1817548 L14.909018,10.1817548 C15.2120996,10.1817548 15.4697119,10.075753 15.681855,9.86360982 C15.8938587,9.65160615 16,9.39413329 16,9.09105174 L16,6.90908774 C15.9998605,6.60600619 15.8939982,6.34839385 15.6817156,6.13639018 L15.6817156,6.13639018 Z"/> </symbol><symbol viewBox="0 0 33 26" id="icon-quote-left"><title>&#x201C;</title><desc>Created with Sketch.</desc> <!-- Generator: Sketch 55.1 (78136) - https://sketchapp.com -->   <g id="quote-left-DS-text-blocks-(DONE)" stroke="none" stroke-width="1" fill="none" fill-rule="evenodd"> <g id="quote-left-um-components-textblocks" transform="translate(-454.000000, -7653.000000)" fill="#222222" fill-rule="nonzero"> <g id="quote-left-quote,-light" transform="translate(303.000000, 7613.233166)"> <path d="M160.355469,40.1066776 L166.996094,43.9640995 C164.196601,48.391205 162.748047,52.8833476 162.650391,57.440662 L162.650391,65.5949589 L151.46875,65.5949589 L151.46875,58.2707401 C151.46875,55.210829 152.323234,51.9475153 154.032227,48.4807011 C155.741219,45.0138869 157.848946,42.2225736 160.355469,40.1066776 Z M177.103516,40.1066776 L183.744141,43.9640995 C180.944647,48.391205 179.496094,52.8833476 179.398438,57.440662 L179.398438,65.5949589 L168.216797,65.5949589 L168.216797,58.2707401 C168.216797,55.210829 169.071281,51.9475153 170.780273,48.4807011 C172.489266,45.0138869 174.596993,42.2225736 177.103516,40.1066776 Z" id="quote-left-&#x201C;"/> </g> </g> </g> </symbol><symbol viewBox="0 0 33 27" id="icon-quote-right"><title>&#x201C;</title><desc>Created with Sketch.</desc> <!-- Generator: Sketch 55.1 (78136) - https://sketchapp.com -->   <g id="quote-right-DS-text-blocks-(DONE)" stroke="none" stroke-width="1" fill="none" fill-rule="evenodd"> <g id="quote-right-um-components-textblocks" transform="translate(-1355.000000, -7786.000000)" fill="#222222" fill-rule="nonzero"> <g id="quote-right-quote,-light" transform="translate(303.000000, 7613.233166)"> <path d="M1061.35547,173.422081 L1067.99609,177.279503 C1065.1966,181.706609 1063.74805,186.198751 1063.65039,190.756066 L1063.65039,198.910363 L1052.46875,198.910363 L1052.46875,191.586144 C1052.46875,188.526233 1053.32323,185.262919 1055.03223,181.796105 C1056.74122,178.329291 1058.84895,175.537977 1061.35547,173.422081 Z M1078.10352,173.422081 L1084.74414,177.279503 C1081.94465,181.706609 1080.49609,186.198751 1080.39844,190.756066 L1080.39844,198.910363 L1069.2168,198.910363 L1069.2168,191.586144 C1069.2168,188.526233 1070.07128,185.262919 1071.78027,181.796105 C1073.48927,178.329291 1075.59699,175.537977 1078.10352,173.422081 Z" id="quote-right-&#x201C;" transform="translate(1068.606445, 186.166222) scale(-1, -1) translate(-1068.606445, -186.166222) "/> </g> </g> </g> </symbol><symbol viewBox="0 0 30 30" id="icon-search"><title>Search</title>  <path d="M5.5 19.5C1.7 15.6 1.7 9.4 5.5 5.5 7.4 3.7 9.9 2.6 12.5 2.6 15.1 2.6 17.6 3.7 19.5 5.5 23.3 9.4 23.3 15.6 19.5 19.5 17.6 21.3 15.1 22.3 12.5 22.3 9.9 22.3 7.4 21.3 5.5 19.5ZM29.6 27.7L22.2 20.3C26.2 15.4 25.9 8.2 21.3 3.7 19 1.3 15.8 0 12.5 0 9.2 0 6 1.3 3.7 3.7 -1.2 8.5-1.2 16.5 3.7 21.3 6 23.7 9.2 25 12.5 25 15.4 25 18.1 24 20.3 22.2L27.7 29.6C28 29.9 28.3 30 28.7 30 29 30 29.4 29.9 29.6 29.6 30.1 29.1 30.1 28.3 29.6 27.7L29.6 27.7Z"/> </symbol><symbol viewBox="0 0 27 26" id="icon-star"><title>star</title> <g transform="translate(4.000000, 5.000000)"> <path d="M9.5,15.3797757 L2.58790908,19.013677 L3.90800098,11.3169506 L-1.68399805,5.86609875 L6.04395454,4.74316151 L9.5,-2.25955146 L12.9560455,4.74316151 L20.683998,5.86609875 L15.091999,11.3169506 L16.4120909,19.013677 L9.5,15.3797757 Z" id="star-Star"/> </g> </symbol><symbol viewBox="0 0 25 25" id="icon-tiktok"><title>icon-tiktok</title>  <path d="M22.3,5.6c-2.7-0.2-4.2-1.7-4.5-4.6c0-0.4-0.4-0.8-0.8-0.8h-3.7c-0.4,0-0.8,0.4-0.8,0.8c0,0-0.1,15.6-0.1,16.4
	c0,1-1,1.7-1.9,1.9c-1.8,0.4-3.4-0.9-3.5-2.5c0-0.7,0.3-1.5,0.8-2c0.7-0.7,1.5-0.8,2-0.8c0.4,0,0.7-0.3,0.7-0.7v0V9.8
	c0-0.8-0.4-1.1-0.8-1.1C4.8,8.8,1,13.2,1.9,18.3c0.6,3.2,3.1,5.8,6.3,6.4c5,1,9.6-2.6,9.6-7.4l0-7.4c1.3,0.7,2.7,1.1,4.3,1.2
	c0.6,0,1.1-0.4,1.1-1V6.7C23.3,6.1,22.9,5.7,22.3,5.6z"/> </symbol><symbol viewBox="0 0 17 13" id="icon-triangle"><title>triangle</title> <polygon points="8.5 0 17 13 0 13"/> </symbol><symbol viewBox="0 0 12 7.51" id="icon-up-arrow-white"><title>up-arrow-white</title><path class="cls-1" d="M15.19,9.34l4.49,4.49a1.49,1.49,0,0,1,.44,1.07A1.51,1.51,0,0,1,17.54,16l-3.42-3.42L10.7,16a1.51,1.51,0,1,1-2.14-2.14l4.49-4.49A1.51,1.51,0,0,1,15.19,9.34Z" transform="translate(-8.12 -8.9)"/></symbol><symbol viewBox="0 0 25 25" id="icon-wechat"><title>icon-wechat</title>  <g> <path d="M24.7,15.6c0-3.4-3.4-6.1-7.6-6.1s-7.6,2.7-7.6,6.1s3.4,6.1,7.6,6.1c0.7,0,1.4-0.1,2.1-0.2l3.9,1.8l-1.3-2.8
		C23.5,19.3,24.7,17.5,24.7,15.6z M14.7,15.2c-0.6,0-1.2-0.5-1.2-1.2c0-0.6,0.5-1.2,1.2-1.2c0.6,0,1.2,0.5,1.2,1.2
		C15.9,14.7,15.4,15.2,14.7,15.2z M19.3,15.2c-0.6,0-1.2-0.5-1.2-1.2c0-0.6,0.5-1.2,1.2-1.2s1.2,0.5,1.2,1.2
		C20.5,14.7,20,15.2,19.3,15.2z"/> <path d="M18.3,7.9c-0.8-3.5-4.5-6.1-8.9-6.1c-5,0-9.1,3.4-9.1,7.6c0,2.4,1.3,4.4,3.3,5.8l-1,2.5l3.3-1.3
		c0.6,0.2,1.3,0.4,1.9,0.5C7.6,10.2,12.9,7.5,18.3,7.9z M12.5,5.2c0.7,0,1.2,0.5,1.2,1.2s-0.5,1.2-1.2,1.2s-1.2-0.5-1.2-1.2
		S11.8,5.2,12.5,5.2z M6.3,7.6c-0.7,0-1.2-0.5-1.2-1.2s0.5-1.2,1.2-1.2s1.2,0.5,1.2,1.2S7,7.6,6.3,7.6z"/> </g> </symbol><symbol viewBox="0 0 1200 1227" id="icon-x"><title>x</title> <path d="M714.163 519.284L1160.89 0H1055.03L667.137 450.887L357.328 0H0L468.492 681.821L0 1226.37H105.866L515.491 750.218L842.672 1226.37H1200L714.137 519.284H714.163ZM569.165 687.828L521.697 619.934L144.011 79.6944H306.615L611.412 515.685L658.88 583.579L1055.08 1150.3H892.476L569.165 687.854V687.828Z"/> </symbol><symbol viewBox="0 0 23 16" id="icon-youtube"><title>icon-youtube</title><desc>Created with Sketch.</desc> <!-- Generator: Sketch 54.1 (76490) - https://sketchapp.com -->   <g id="youtube-Symbols" stroke="none" stroke-width="1" fill-rule="evenodd" opacity="0.954101562"> <g id="youtube-Framework/footer.base" transform="translate(-475.000000, -291.000000)"> <g id="youtube-FOOTER---1400px"> <g id="youtube-FOOTER"> <g id="youtube-SM" transform="translate(355.117188, 285.678677)"> <g id="youtube-Icons/youtube" transform="translate(120.233817, 5.392578)"> <path d="M22.5083705,11.8891237 L22.5083705,3.86673565 C22.5083705,3.86673565 22.5083705,5.32907052e-15 18.629488,5.32907052e-15 L3.87755913,5.32907052e-15 C3.87755913,5.32907052e-15 3.55271368e-15,5.32907052e-15 3.55271368e-15,3.86673565 L3.55271368e-15,11.8891237 C3.55271368e-15,11.8891237 3.55271368e-15,15.7558594 3.87755913,15.7558594 L18.629488,15.7558594 C18.629488,15.7558594 22.5083705,15.7558594 22.5083705,11.8891237 M15.6240488,7.88914335 L8.25536309,12.2031064 L8.25536309,3.57386109 L15.6240488,7.88914335" id="youtube-Shape"/> </g> </g> </g> </g> </g> </g> </symbol></svg>